<?xml version="1.0" encoding="UTF-8" standalone="no"?>
<svg
   xmlns:dc="http://purl.org/dc/elements/1.1/"
   xmlns:cc="http://creativecommons.org/ns#"
   xmlns:rdf="http://www.w3.org/1999/02/22-rdf-syntax-ns#"
   xmlns:svg="http://www.w3.org/2000/svg"
   xmlns="http://www.w3.org/2000/svg"
   xmlns:xlink="http://www.w3.org/1999/xlink"
   id="svg8"
   version="1.1"
   viewBox="0 0 200 200"
   height="200mm"
   width="200mm">
  <defs
     id="defs2">
    <linearGradient
       id="linearGradient4610">
      <stop
         id="stop4606"
         offset="0"
         style="stop-color:#00a1ff;stop-opacity:1" />
      <stop
         id="stop4608"
         offset="1"
         style="stop-color:#ffffff;stop-opacity:0" />
    </linearGradient>
    <linearGradient
       gradientTransform="matrix(1.0289759,0,0,1.0289759,-10.438074,58.772732)"
       gradientUnits="userSpaceOnUse"
       y2="35.995113"
       x2="218.61874"
       y1="51.586628"
       x1="174.67902"
       id="linearGradient4612"
       xlink:href="#linearGradient4610" />
    <linearGradient
       gradientUnits="userSpaceOnUse"
       y2="47.382557"
       x2="213.97658"
       y1="49.649937"
       x1="173.91753"
       id="linearGradient4612-3"
       xlink:href="#linearGradient4610"
       gradientTransform="matrix(0.9395279,0.41961712,-0.41961712,0.9395279,29.578299,3.8582019)" />
    <linearGradient
       gradientUnits="userSpaceOnUse"
       y2="47.382557"
       x2="213.97658"
       y1="49.649937"
       x1="173.91753"
       id="linearGradient4612-3-9"
       xlink:href="#linearGradient4610"
       gradientTransform="matrix(-0.9662475,0.51701774,0.43155076,1.1576091,175.56402,-27.706158)" />
    <linearGradient
       gradientUnits="userSpaceOnUse"
       y2="35.995113"
       x2="218.61874"
       y1="51.586628"
       x1="174.67902"
       id="linearGradient4612-7"
       xlink:href="#linearGradient4610"
       gradientTransform="matrix(-0.8477142,0,0,0.76707932,184.58095,70.601114)" />
  </defs>
  <metadata
     id="metadata5">
    <rdf:RDF>
      <cc:Work
         rdf:about="">
        <dc:format>image/svg+xml</dc:format>
        <dc:type
           rdf:resource="http://purl.org/dc/dcmitype/StillImage" />
        <dc:title></dc:title>
      </cc:Work>
    </rdf:RDF>
  </metadata>
  <g
     transform="translate(0,-97)"
     id="layer1">
    <circle
       r="96.454224"
       style="stroke-width:0.27224982"
       cy="197.61943"
       cx="100.37006"
       id="path3721" />
    <path
       id="path3723"
       d="M 90.257908,293.27793 C 79.464175,291.90294 66.184069,287.98394 57.533014,283.62074 43.808567,276.69876 29.170909,263.79489 20.445614,250.92623 13.898074,241.2695 7.9350122,226.40145 5.804655,214.42113 4.4157022,206.6102 4.2350475,190.59762 5.4492343,182.91795 9.6553436,156.31447 24.801737,132.74993 47.61312,117.31997 c 14.243883,-9.63482 34.586618,-15.68805 52.72172,-15.68805 47.14289,0 87.57682,34.61302 94.956,81.28603 1.21419,7.67967 1.03354,23.69225 -0.35543,31.50318 -2.61701,14.71716 -9.97958,31.2167 -18.91708,42.3932 -4.93401,6.17007 -15.28,15.75928 -21.53235,19.95732 -11.43088,7.67512 -20.87182,11.77886 -33.89167,14.73188 -6.48336,1.47048 -24.465575,2.52226 -30.336402,1.7744 z"
       style="fill:#ffccaa;fill-opacity:1;stroke:#000000;stroke-width:4.1159029;stroke-miterlimit:4;stroke-dasharray:none;stroke-opacity:1" />
    <ellipse
       ry="3.1114271"
       rx="3.1114273"
       cy="216.28802"
       cx="165.32111"
       id="path4647"
       style="fill:#502d16;fill-opacity:1;stroke:#000000;stroke-width:0;stroke-miterlimit:4;stroke-dasharray:none;stroke-opacity:1" />
    <ellipse
       ry="2.7224987"
       rx="3.3058915"
       cy="207.34265"
       cx="160.45947"
       id="path4649"
       style="fill:#502d16;fill-opacity:1;stroke:#000000;stroke-width:0;stroke-miterlimit:4;stroke-dasharray:none;stroke-opacity:1" />
    <ellipse
       ry="2.5280344"
       rx="2.33357"
       cy="208.31496"
       cx="181.65608"
       id="path4651"
       style="fill:#502d16;fill-opacity:1;stroke:#000000;stroke-width:0;stroke-miterlimit:4;stroke-dasharray:none;stroke-opacity:1" />
    <ellipse
       ry="3.3058915"
       rx="3.8892837"
       cy="229.70605"
       cx="176.98895"
       id="path4653"
       style="fill:#502d16;fill-opacity:1;stroke:#000000;stroke-width:0;stroke-miterlimit:4;stroke-dasharray:none;stroke-opacity:1" />
    <ellipse
       ry="3.8892837"
       rx="2.7224984"
       cy="227.56694"
       cx="161.43184"
       id="path4655"
       style="fill:#502d16;fill-opacity:1;stroke:#000000;stroke-width:0;stroke-miterlimit:4;stroke-dasharray:none;stroke-opacity:1" />
    <ellipse
       ry="2.33357"
       rx="2.139106"
       cy="203.06447"
       cx="170.57164"
       id="path4657"
       style="fill:#502d16;fill-opacity:1;stroke:#000000;stroke-width:0;stroke-miterlimit:4;stroke-dasharray:none;stroke-opacity:1" />
    <ellipse
       ry="2.7224984"
       rx="3.3058913"
       cy="219.78836"
       cx="178.35019"
       id="path4659"
       style="fill:#502d16;fill-opacity:1;stroke:#000000;stroke-width:0;stroke-miterlimit:4;stroke-dasharray:none;stroke-opacity:1" />
    <ellipse
       ry="1.9446418"
       rx="1.7501776"
       cy="216.67696"
       cx="156.57022"
       id="path4679"
       style="fill:#502d16;fill-opacity:1;stroke:#000000;stroke-width:0;stroke-miterlimit:4;stroke-dasharray:none;stroke-opacity:1" />
    <ellipse
       ry="2.33357"
       rx="2.5280344"
       cy="208.50946"
       cx="22.000982"
       id="path4681"
       style="fill:#502d16;fill-opacity:1;stroke:#000000;stroke-width:0;stroke-miterlimit:4;stroke-dasharray:none;stroke-opacity:1" />
    <ellipse
       ry="2.7224984"
       rx="2.33357"
       cy="220.95515"
       cx="15.972593"
       id="path4683"
       style="fill:#502d16;fill-opacity:1;stroke:#000000;stroke-width:0;stroke-miterlimit:4;stroke-dasharray:none;stroke-opacity:1" />
    <ellipse
       ry="2.7224984"
       rx="2.5280342"
       cy="206.5648"
       cx="12.666699"
       id="path4685"
       style="fill:#502d16;fill-opacity:1;stroke:#000000;stroke-width:0;stroke-miterlimit:4;stroke-dasharray:none;stroke-opacity:1" />
    <ellipse
       ry="2.7224984"
       rx="2.9169626"
       cy="222.89978"
       cx="34.44669"
       id="path4687"
       style="fill:#502d16;fill-opacity:1;stroke:#000000;stroke-width:0;stroke-miterlimit:4;stroke-dasharray:none;stroke-opacity:1" />
    <ellipse
       ry="2.33357"
       rx="2.5280344"
       cy="206.95375"
       cx="31.335264"
       id="path4689"
       style="fill:#502d16;fill-opacity:1;stroke:#000000;stroke-width:0;stroke-miterlimit:4;stroke-dasharray:none;stroke-opacity:1" />
    <ellipse
       ry="2.7224984"
       rx="2.9169626"
       cy="218.23265"
       cx="25.501337"
       id="path4691"
       style="fill:#502d16;fill-opacity:1;stroke:#000000;stroke-width:0;stroke-miterlimit:4;stroke-dasharray:none;stroke-opacity:1" />
    <ellipse
       ry="1.9446418"
       rx="2.5280344"
       cy="227.95587"
       cx="21.612051"
       id="path4693"
       style="fill:#502d16;fill-opacity:1;stroke:#000000;stroke-width:0;stroke-miterlimit:4;stroke-dasharray:none;stroke-opacity:1" />
    <ellipse
       ry="1.9446418"
       rx="1.7501776"
       cy="229.9005"
       cx="32.113117"
       id="path4695"
       style="fill:#502d16;fill-opacity:1;stroke:#000000;stroke-width:0;stroke-miterlimit:4;stroke-dasharray:none;stroke-opacity:1" />
    <ellipse
       ry="3.3058913"
       rx="4.0837479"
       cy="202.09215"
       cx="48.448109"
       id="path4736"
       style="fill:#502d16;fill-opacity:1;stroke:#000000;stroke-width:0;stroke-miterlimit:4;stroke-dasharray:none;stroke-opacity:1" />
    <path
       id="path4567"
       d="m 191.66578,112.43751 c -2.7559,1.33627 -7.07585,-0.1668 -13.43986,-0.3264 -3.46992,-0.0871 -8.88661,1.01037 -11.89885,1.37377 -5.33419,0.64351 6.7253,-6.47868 10.98381,-8.54352 4.25854,-2.06483 14.05383,-4.36406 17.16245,-1.29815 3.10859,3.06592 1.45096,6.72948 -2.80755,8.7943 z"
       style="opacity:1;fill:url(#linearGradient4612);fill-opacity:1;stroke:none;stroke-width:2.27055836;stroke-linecap:butt;stroke-linejoin:miter;stroke-miterlimit:4;stroke-dasharray:none;stroke-opacity:1" />
    <path
       id="path4567-2"
       d="m 192.87354,135.71995 c -2.92381,-0.91202 -4.20323,-3.42071 -9.61249,-6.91501 -2.91559,-1.88343 -7.02535,-2.87485 -10.05755,-2.76821 -5.68297,0.19988 4.24494,-3.31043 8.97533,-3.45913 4.73037,-0.1487 14.6118,1.74646 16.1999,5.81355 1.58811,4.06709 -1.01497,8.72941 -5.50519,7.3288 z"
       style="opacity:1;fill:url(#linearGradient4612-3);fill-opacity:1;stroke:none;stroke-width:2.27055836;stroke-linecap:butt;stroke-linejoin:miter;stroke-miterlimit:4;stroke-dasharray:none;stroke-opacity:1" />
    <path
       id="path4567-0"
       d="m 18.079182,110.60706 c 2.270418,0.99612 5.829383,-0.12437 11.072326,-0.24334 2.85867,-0.0649 7.321166,0.75319 9.80279,1.0241 4.394532,0.47972 -5.540592,-4.8297 -9.048951,-6.36899 -3.508349,-1.53929 -11.57814,-3.2533 -14.139144,-0.96775 -2.561002,2.28558 -1.195377,5.01668 2.312979,6.55598 z"
       style="opacity:1;fill:url(#linearGradient4612-7);fill-opacity:1;stroke:none;stroke-width:1.77939522;stroke-linecap:butt;stroke-linejoin:miter;stroke-miterlimit:4;stroke-dasharray:none;stroke-opacity:1" />
    <path
       id="path4567-2-9"
       d="m 7.6247724,134.76307 c 3.0069666,-1.12371 4.3227806,-4.21473 9.8858706,-8.52013 2.998499,-2.32059 7.225139,-3.54213 10.343589,-3.41075 5.844572,0.24628 -4.36568,-4.07882 -9.230587,-4.26204 -4.864906,-0.18322 -15.0273565,2.15184 -16.660622,7.16297 -1.63326564,5.01112 1.0438476,10.75567 5.6617494,9.02995 z"
       style="opacity:1;fill:url(#linearGradient4612-3-9);fill-opacity:1;stroke:none;stroke-width:2.55592537;stroke-linecap:butt;stroke-linejoin:miter;stroke-miterlimit:4;stroke-dasharray:none;stroke-opacity:1" />
    <circle
       r="29.558552"
       cy="178.78284"
       cx="61.800789"
       id="path4677"
       style="opacity:1;fill:#ffffff;fill-opacity:1;stroke:#000000;stroke-width:4.1159029;stroke-linecap:butt;stroke-linejoin:miter;stroke-miterlimit:4;stroke-dasharray:none;stroke-opacity:1" />
    <ellipse
       transform="scale(-1,1)"
       ry="13.354677"
       rx="13.549139"
       cy="166.55402"
       cx="-72.71299"
       id="path4579-6-0-6"
       style="fill:#000000;fill-opacity:1;stroke:none;stroke-width:0.22960241;stroke-miterlimit:4;stroke-dasharray:none;stroke-opacity:1" />
    <path
       id="path4577-5-7-2"
       d="m 152.93143,270.86214 c 0,-22.69673 -5.7052,-36.94434 -25.15297,-44.28523 -6.44962,-2.43453 -22.8904,-0.26455 -29.194801,-0.22141 -6.222162,0.0425 -23.195102,-1.01999 -28.413636,0.8517 -18.916595,6.78466 -21.451962,19.96611 -21.451962,43.65494 28.421991,-6.58142 68.049409,-7.44738 104.213369,0 z"
       style="fill:#b30054;fill-opacity:1;stroke:none;stroke-width:4.1159029;stroke-linecap:butt;stroke-linejoin:round;stroke-miterlimit:4;stroke-dasharray:none;stroke-opacity:1" />
    <path
       transform="matrix(0.99889789,-0.04693623,0.07222498,0.99738837,0,0)"
       d="m 80.703322,271.74803 a 26.217499,25.247299 0 0 1 15.77527,-21.04566 26.217499,25.247299 0 0 1 26.710878,3.4725 26.217499,25.247299 0 0 1 9.41553,24.32055 l -25.77962,-4.59506 z"
       id="path4697-1"
       style="fill:#ffaaaa;fill-opacity:1;stroke:#000000;stroke-width:0;stroke-miterlimit:4;stroke-dasharray:none;stroke-opacity:1" />
    <path
       id="path4577-5-7-2-6"
       d="m 152.93143,270.86214 c 0,-22.69673 -5.7052,-36.94434 -25.15297,-44.28523 -6.44962,-2.43453 -22.8904,-0.26455 -29.194801,-0.22141 -6.222162,0.0425 -23.19511,-1.01999 -28.413643,0.8517 -18.916589,6.78466 -21.451955,19.96611 -21.451955,43.65494 28.421989,-6.58142 68.049409,-7.44738 104.213369,0 z"
       style="fill:none;fill-opacity:1;stroke:#000000;stroke-width:4.1159029;stroke-linecap:butt;stroke-linejoin:round;stroke-miterlimit:4;stroke-dasharray:none;stroke-opacity:1" />
    <circle
       r="29.558554"
       transform="scale(-1,1)"
       cy="178.79597"
       cx="-139.46176"
       id="path4677-8"
       style="opacity:1;fill:#ffffff;fill-opacity:1;stroke:#000000;stroke-width:4.1159029;stroke-linecap:butt;stroke-linejoin:miter;stroke-miterlimit:4;stroke-dasharray:none;stroke-opacity:1" />
    <ellipse
       ry="13.354677"
       rx="13.549139"
       cy="167.84337"
       cx="152.37144"
       id="path4579-6-0-6-7"
       style="fill:#000000;fill-opacity:1;stroke:none;stroke-width:0.22960241;stroke-miterlimit:4;stroke-dasharray:none;stroke-opacity:1" />
    <path
       id="path4567-23"
       d="m 70.733748,124.57305 c -4.334497,-0.0446 -7.272709,-1.63831 -17.836824,2.50549 -9.760773,4.86342 -8.837444,17.39722 -22.954313,20.86953 2.162703,-5.82175 9.267874,-17.31195 17.820659,-24.35004 9.203222,-7.57334 24.497081,-4.56925 26.133842,-3.0864 3.255916,2.94975 1.793308,4.11234 -3.163364,4.06142 z"
       style="opacity:1;fill:#000406;fill-opacity:1;stroke:none;stroke-width:2.27928591;stroke-linecap:butt;stroke-linejoin:miter;stroke-miterlimit:4;stroke-dasharray:none;stroke-opacity:1" />
    <path
       id="path4567-23-5"
       d="m 127.7358,122.747 c 4.33452,-0.0445 7.27274,-1.63833 17.83683,2.50547 9.76078,4.86342 8.83745,17.39721 22.95433,20.86953 -2.1627,-5.82175 -9.26789,-17.31194 -17.82067,-24.35004 -9.20322,-7.57335 -24.49708,-4.56926 -26.13384,-3.0864 -3.25591,2.94975 -1.7933,4.11233 3.16335,4.06144 z"
       style="opacity:1;fill:#000406;fill-opacity:1;stroke:none;stroke-width:2.27928591;stroke-linecap:butt;stroke-linejoin:miter;stroke-miterlimit:4;stroke-dasharray:none;stroke-opacity:1" />
  </g>
</svg>
